<svg height="512" viewBox="0 0 64 64" width="512" xmlns="http://www.w3.org/2000/svg"><path d="m49 21v-19a1 1 0 0 0 -1-1h-32a1 1 0 0 0 -1 1v19a.99.99 0 0 0 .889.978v1.044a.99.99 0 0 0 -.889.978v35a.99.99 0 0 0 .889.978v2.022a1 1 0 0 0 1 1h30.222a1 1 0 0 0 1-1v-2.022a.99.99 0 0 0 .889-.978v-35a.99.99 0 0 0 -.889-.978v-1.044a.99.99 0 0 0 .889-.978zm-32 4h30v33h-30zm29.111-2h-28.222v-1h28.222zm-29.111-20h30v17h-30zm29.111 58h-28.222v-1h28.222z"/><path d="m20 8a1 1 0 0 0 -1 1v6a1 1 0 0 0 2 0v-6a1 1 0 0 0 -1-1z"/><path d="m20 37a1 1 0 0 0 -1 1v6a1 1 0 0 0 2 0v-6a1 1 0 0 0 -1-1z"/><path d="m41 55h-7a1 1 0 0 0 0 2h7a1 1 0 0 0 0-2z"/><path d="m45 55h-1a1 1 0 0 0 0 2h1a1 1 0 0 0 0-2z"/></svg>