<?xml version="1.0" encoding="iso-8859-1"?>
<!-- Generator: Adobe Illustrator 19.0.0, SVG Export Plug-In . SVG Version: 6.00 Build 0)  -->
<svg version="1.1" id="Capa_1" xmlns="http://www.w3.org/2000/svg" xmlns:xlink="http://www.w3.org/1999/xlink" x="0px" y="0px"
	 viewBox="0 0 512 512" style="enable-background:new 0 0 512 512;" xml:space="preserve">
<g>
	<g>
		<path d="M424.339,0H87.661C74.686,0,64.129,10.556,64.129,23.532v464.936c0,12.976,10.557,23.532,23.532,23.532h336.678
			c12.976,0,23.532-10.557,23.532-23.532V23.532C447.871,10.556,437.314,0,424.339,0z M432.871,416.838h-24.568
			c-4.142,0-7.5,3.358-7.5,7.5c0,4.142,3.358,7.5,7.5,7.5h24.568v56.629c0,4.705-3.828,8.533-8.532,8.533H87.661
			c-4.705,0-8.532-3.828-8.532-8.532v-56.629H376.24c4.142,0,7.5-3.358,7.5-7.5c0-4.142-3.358-7.5-7.5-7.5H79.129V95.161h353.742
			V416.838z M175.323,71.629c0-4.705,3.828-8.532,8.532-8.532c4.704,0,8.532,3.828,8.532,8.532c0,4.705-3.828,8.532-8.532,8.532
			C179.151,80.161,175.323,76.334,175.323,71.629z M239.452,63.613c0-9.125,7.423-16.548,16.548-16.548s16.548,7.424,16.548,16.548
			c0,9.125-7.423,16.549-16.548,16.549S239.452,72.738,239.452,63.613z M319.613,71.629c0-4.705,3.828-8.532,8.532-8.532
			c4.704,0,8.532,3.828,8.532,8.532c0,4.705-3.828,8.532-8.532,8.532C323.441,80.161,319.613,76.334,319.613,71.629z
			 M432.871,80.161h-82.802c1.034-2.647,1.608-5.523,1.608-8.532c0-12.976-10.557-23.532-23.532-23.532
			c-12.975,0-23.532,10.557-23.532,23.532c0,3.009,0.574,5.885,1.608,8.532h-23.376c2.979-4.814,4.703-10.483,4.703-16.549
			c0-17.396-14.152-31.548-31.548-31.548s-31.548,14.153-31.548,31.548c0,6.066,1.725,11.734,4.703,16.549h-23.376
			c1.034-2.647,1.608-5.523,1.608-8.532c0-12.976-10.557-23.532-23.532-23.532c-12.975,0-23.532,10.557-23.532,23.532
			c0,3.009,0.574,5.885,1.608,8.532H79.129V23.532c0-4.705,3.828-8.532,8.532-8.532h336.678c4.705,0,8.532,3.827,8.532,8.532V80.161
			z"/>
	</g>
</g>
<g>
	<g>
		<path d="M256,128.258c-70.437,0-127.742,57.305-127.742,127.742S185.563,383.742,256,383.742S383.742,326.437,383.742,256
			S326.437,128.258,256,128.258z M256,368.742c-62.166,0-112.742-50.576-112.742-112.742S193.834,143.258,256,143.258
			c49.375,0,91.434,31.906,106.653,76.182l-8.799,2.2c-10.495,2.624-17.825,12.012-17.825,22.83v23.062
			c0,10.818,7.33,20.206,17.825,22.83l8.799,2.199C347.434,336.836,305.375,368.742,256,368.742z M357.493,275.809
			c-3.806-0.951-6.463-4.355-6.463-8.278v-23.062c0-3.922,2.658-7.326,6.463-8.278l9.073-2.268
			c1.423,7.142,2.176,14.523,2.176,22.077c0,7.554-0.753,14.935-2.176,22.077L357.493,275.809z"/>
	</g>
</g>
<g>
</g>
<g>
</g>
<g>
</g>
<g>
</g>
<g>
</g>
<g>
</g>
<g>
</g>
<g>
</g>
<g>
</g>
<g>
</g>
<g>
</g>
<g>
</g>
<g>
</g>
<g>
</g>
<g>
</g>
</svg>
