<svg height="480pt" viewBox="-48 0 480 480.00023" width="480pt" xmlns="http://www.w3.org/2000/svg"><path d="m32 432h152v16h-152zm0 0"/><path d="m200 432h152v16h-152zm0 0"/><path d="m40 384h304v-208h-304zm16-192h272v176h-272zm0 0"/><path d="m304 232h-32c-4.417969 0-8 3.582031-8 8v80c0 4.417969 3.582031 8 8 8h32c4.417969 0 8-3.582031 8-8v-80c0-4.417969-3.582031-8-8-8zm-8 80h-16v-64h16zm0 0"/><path d="m224 112c0-17.671875-14.328125-32-32-32s-32 14.328125-32 32 14.328125 32 32 32 32-14.328125 32-32zm-32 16c-8.835938 0-16-7.164062-16-16s7.164062-16 16-16c1.382812.019531 2.757812.222656 4.089844.601562l-9.746094 9.742188 11.3125 11.3125 9.742188-9.742188c.382812 1.328126.582031 2.703126.601562 4.085938 0 8.835938-7.164062 16-16 16zm0 0"/><path d="m240 104h16v16h-16zm0 0"/><path d="m272 104h16v16h-16zm0 0"/><path d="m32 96h80v16h-80zm0 0"/><path d="m304 104h16v16h-16zm0 0"/><path d="m336 104h16v16h-16zm0 0"/><path d="m88 304h-16v48h32v-16h-16zm0 0"/><path d="m40 64h-32c-4.417969 0-8 3.582031-8 8v408h384v-408c0-4.417969-3.582031-8-8-8h-176v-8c-.019531-5.921875-2.246094-11.625-6.238281-16 6.390625-7.007812 8.03125-17.132812 4.183593-25.800781-3.847656-8.667969-12.460937-14.2421878-21.945312-14.199219h-112c-9.484375-.0429688-18.097656 5.53125-21.945312 14.199219-3.847657 8.667969-2.207032 18.792969 4.183593 25.800781-3.992187 4.375-6.21875 10.078125-6.238281 16zm-24 16h112v64h-112zm352 384h-352v-48h352zm-352-64v-240h352v240zm352-320v64h-224v-64zm-312-16v-8c0-4.417969 3.582031-8 8-8h112c4.417969 0 8 3.582031 8 8v8zm8-48h112c4.417969 0 8 3.582031 8 8s-3.582031 8-8 8h-112c-4.417969 0-8-3.582031-8-8s3.582031-8 8-8zm0 0"/></svg>