<svg height="480pt" viewBox="-88 0 480 480" width="480pt" xmlns="http://www.w3.org/2000/svg"><path d="m280 0h-256c-13.253906 0-24 10.746094-24 24v416c0 4.417969 3.582031 8 8 8h25.472656c-.949218 2.5625-1.445312 5.269531-1.472656 8 0 13.253906 10.746094 24 24 24s24-10.746094 24-24c-.027344-2.730469-.523438-5.4375-1.472656-8h146.945312c-.949218 2.5625-1.445312 5.269531-1.472656 8 0 13.253906 10.746094 24 24 24s24-10.746094 24-24c-.027344-2.730469-.523438-5.4375-1.472656-8h25.472656c4.417969 0 8-3.582031 8-8v-416c0-13.253906-10.746094-24-24-24zm-216 456c0 4.417969-3.582031 8-8 8s-8-3.582031-8-8 3.582031-8 8-8 8 3.582031 8 8zm192 0c0 4.417969-3.582031 8-8 8s-8-3.582031-8-8 3.582031-8 8-8 8 3.582031 8 8zm32-24h-272v-408c0-4.417969 3.582031-8 8-8h256c4.417969 0 8 3.582031 8 8zm0 0"/><path d="m264 32h-224c-4.417969 0-8 3.582031-8 8v128c0 4.417969 3.582031 8 8 8h224c4.417969 0 8-3.582031 8-8v-128c0-4.417969-3.582031-8-8-8zm-216 48h208v16h-208zm0 32h208v16h-208zm208-64v16h-208v-16zm-208 112v-16h208v16zm0 0"/><path d="m224 200h-144c-4.417969 0-8 3.582031-8 8v32c0 4.417969 3.582031 8 8 8h144c4.417969 0 8-3.582031 8-8v-32c0-4.417969-3.582031-8-8-8zm-8 32h-128v-16h128zm0 0"/><path d="m152 304c2.128906.023438 4.175781-.8125 5.679688-2.320312 1.507812-1.503907 2.34375-3.550782 2.320312-5.679688-.03125-2.117188-.859375-4.148438-2.320312-5.679688-1.890626-1.875-4.589844-2.683593-7.199219-2.160156-.53125.074219-1.042969.234375-1.519531.480469-.511719.175781-.996094.417969-1.441407.71875-.417969.296875-.820312.617187-1.199219.960937-1.460937 1.53125-2.289062 3.5625-2.320312 5.679688-.023438 2.128906.8125 4.175781 2.320312 5.679688 1.503907 1.507812 3.550782 2.34375 5.679688 2.320312zm0 0"/><path d="m114.320312 301.679688c.777344.707031 1.671876 1.273437 2.640626 1.679687 2.460937 1.054687 5.285156.796875 7.511718-.6875 2.226563-1.484375 3.554688-3.996094 3.527344-6.671875-.03125-2.117188-.859375-4.148438-2.320312-5.679688-2.300782-2.269531-5.742188-2.933593-8.71875-1.679687-.988282.367187-1.890626.9375-2.640626 1.679687-1.460937 1.53125-2.289062 3.5625-2.320312 5.679688-.027344 1.050781.191406 2.089844.640625 3.039062.40625.96875.976563 1.863282 1.679687 2.640626zm0 0"/><path d="m184 304c2.675781.027344 5.1875-1.300781 6.671875-3.527344 1.484375-2.226562 1.742187-5.050781.6875-7.511718-.40625-.96875-.972656-1.863282-1.679687-2.640626-3.207032-2.960937-8.152344-2.960937-11.359376 0-.707031.777344-1.273437 1.671876-1.679687 2.640626-1.054687 2.460937-.796875 5.285156.6875 7.511718 1.484375 2.226563 3.996094 3.554688 6.671875 3.527344zm0 0"/><path d="m208 264h-112c-4.417969 0-8 3.582031-8 8v48c0 4.417969 3.582031 8 8 8h112c4.417969 0 8-3.582031 8-8v-48c0-4.417969-3.582031-8-8-8zm-8 48h-96v-32h96zm0 0"/></svg>